<?xml version="1.0" encoding="UTF-8"?>
<svg width="225px" height="60px" viewBox="0 0 225 60" version="1.1" xmlns="http://www.w3.org/2000/svg" xmlns:xlink="http://www.w3.org/1999/xlink">
    <!-- Generator: Sketch 46.2 (44496) - http://www.bohemiancoding.com/sketch -->
    <title>Logo_white</title>
    <desc>Created with Sketch.</desc>
    <defs>
        <polygon id="path-1" points="0 60.0002432 225 60.0002432 225 0.000243243243 0 0.000243243243"></polygon>
    </defs>
    <g id="Desktop" stroke="none" stroke-width="1" fill="none" fill-rule="evenodd">
        <g id="Artboard" transform="translate(-295.000000, -164.000000)">
            <g id="Logo_white" transform="translate(295.000000, 164.000000)">
                <path d="M87.5179076,23.7594324 L83.6986141,23.7594324 L83.6986141,20.9856486 L90.9100272,20.9856486 L90.9100272,30.7567297 C89.4776902,31.2067297 86.7141033,31.5067297 84.6785054,31.5067297 C79.1252446,31.5067297 76.4619293,29.3824054 76.4619293,22.2853784 C76.4619293,15.1624054 79.4521467,13.3129459 85.1562228,13.3129459 C86.7385598,13.3129459 89.075788,13.5878108 90.4323098,13.9624054 L89.7540489,16.8367297 C88.8247011,16.5124054 86.5877446,16.3121351 85.4073098,16.3121351 C81.4372011,16.3121351 80.0048641,16.9615946 80.0048641,22.3097027 C80.0048641,27.6578108 81.4372011,28.5075405 85.2564946,28.5075405 C86.0855707,28.5075405 86.990462,28.3826757 87.5179076,28.2578108 L87.5179076,23.7594324 Z" id="Fill-1" fill="#FFFFFF"></path>
                <path d="M96.6186685,23.2345135 L101.995842,23.2345135 C101.895571,20.9853243 101.241766,20.511 99.4580707,20.511 C97.498288,20.511 96.8200272,21.1353243 96.6186685,23.2345135 L96.6186685,23.2345135 Z M104.006168,30.8066757 C102.724647,31.2315405 100.839864,31.5072162 99.5330707,31.5072162 C95.8393207,31.5072162 93.3268207,29.9577568 93.3268207,24.7345135 C93.3268207,19.6361351 95.562962,18.0615405 99.2819837,18.0615405 C103.327092,18.0615405 105.086332,19.4358649 104.860516,25.6085676 L96.5933967,25.6085676 C96.6186685,28.3328919 97.6735598,28.8826216 99.9105163,28.8826216 C100.814592,28.8826216 102.498016,28.658027 103.503179,28.358027 L104.006168,30.8066757 Z" id="Fill-3" fill="#FFFFFF"></path>
                <path d="M109.877038,24.7840541 C109.877038,28.3078378 110.556114,29.0075676 112.741712,29.0075676 C114.977853,29.0075676 115.656114,28.3078378 115.656114,24.7840541 C115.656114,21.1354054 114.977853,20.5605405 112.741712,20.5605405 C110.556114,20.5605405 109.877038,21.1354054 109.877038,24.7840541 M106.661005,24.7337838 C106.661005,19.5356757 108.696603,18.0608108 112.741712,18.0608108 C116.837364,18.0608108 118.872962,19.5356757 118.872962,24.7337838 C118.872962,29.957027 116.862636,31.5072973 112.741712,31.5072973 C108.671332,31.5072973 106.661005,29.957027 106.661005,24.7337838" id="Fill-5" fill="#FFFFFF"></path>
                <path d="M132.503315,16.9368649 C131.523424,16.5865946 129.638641,16.3117297 127.880217,16.3117297 C125.090543,16.3117297 123.934565,16.8865946 123.934565,18.5860541 C123.934565,19.9109189 124.58837,20.5109189 127.77913,20.8101081 C131.850326,21.234973 133.659293,22.734973 133.659293,26.0333514 C133.659293,30.132 131.146793,31.5071351 126.096522,31.5071351 C124.161196,31.5071351 122.050598,31.2071351 120.643533,30.732 L121.372337,27.8828108 C122.477772,28.2330811 124.336467,28.5079459 126.045978,28.5079459 C128.834837,28.5079459 130.091087,28.0076757 130.091087,26.2084865 C130.091087,24.9095676 129.46337,24.0841622 126.096522,23.7841622 C122.226685,23.4095676 120.417717,22.2095676 120.417717,18.9857838 C120.417717,14.8879459 122.979946,13.3133514 127.880217,13.3133514 C129.789457,13.3133514 131.850326,13.6376757 133.23212,14.0876757 L132.503315,16.9368649 Z" id="Fill-7" fill="#FFFFFF"></path>
                <path d="M138.744049,24.7840541 C138.744049,28.3078378 139.42231,29.0075676 141.608723,29.0075676 C143.844864,29.0075676 144.523125,28.3078378 144.523125,24.7840541 C144.523125,21.1354054 143.844864,20.5605405 141.608723,20.5605405 C139.42231,20.5605405 138.744049,21.1354054 138.744049,24.7840541 M135.528016,24.7337838 C135.528016,19.5356757 137.562799,18.0608108 141.608723,18.0608108 C145.704375,18.0608108 147.739158,19.5356757 147.739158,24.7337838 C147.739158,29.957027 145.728832,31.5072973 141.608723,31.5072973 C137.538342,31.5072973 135.528016,29.957027 135.528016,24.7337838" id="Fill-9" fill="#FFFFFF"></path>
                <path d="M153.171929,27.5831351 C153.171929,28.8074595 153.448288,29.6571892 154.151005,30.5823243 L151.41269,31.7563784 C150.533886,30.7574595 150.056168,29.5574595 150.056168,27.708 L150.056168,13.1134054 L153.171929,13.1134054 L153.171929,27.5831351 Z" id="Fill-11" fill="#FFFFFF"></path>
                <path d="M164.061929,18.4361351 L167.17769,18.4361351 L167.17769,30.4320811 C165.595353,31.0320811 163.157853,31.5315405 161.123071,31.5315405 C157.528777,31.5315405 155.921168,30.1077568 155.921168,25.533973 L155.921168,18.4361351 L159.036929,18.4361351 L159.036929,25.2088378 C159.036929,28.0328919 159.564375,28.7326216 161.750788,28.7326216 C162.579864,28.7326216 163.307853,28.6328919 164.061929,28.4074865 L164.061929,18.4361351 Z" id="Fill-13" fill="#FFFFFF"></path>
                <path d="M174.617609,21.1354054 L174.617609,26.6083784 C174.617609,28.182973 175.044783,28.8324324 176.55212,28.8324324 C177.382011,28.8324324 178.11,28.6832432 178.738533,28.482973 L179.29125,30.9324324 C178.387174,31.2567568 177.00538,31.5072973 175.773587,31.5072973 C172.908913,31.5072973 171.501848,30.6575676 171.501848,26.8832432 L171.501848,21.1354054 L169.366793,21.1354054 L169.366793,18.4362162 L171.501848,18.4362162 L171.501848,16.2875676 L174.617609,15.0121622 L174.617609,18.4362162 L178.864076,18.4362162 L178.864076,21.1354054 L174.617609,21.1354054 Z" id="Fill-15" fill="#FFFFFF"></path>
                <mask id="mask-2" fill="white">
                    <use xlink:href="#path-1"></use>
                </mask>
                <g id="Clip-18"></g>
                <path d="M181.478804,31.1572703 L184.594565,31.1572703 L184.594565,18.4364595 L181.478804,18.4364595 L181.478804,31.1572703 Z M184.844837,14.6629459 C184.844837,16.137 184.418478,16.3867297 183.061141,16.3867297 C181.679348,16.3867297 181.252174,16.137 181.252174,14.6629459 C181.252174,13.3380811 181.679348,13.1378108 183.061141,13.1378108 C184.418478,13.1378108 184.844837,13.3380811 184.844837,14.6629459 L184.844837,14.6629459 Z" id="Fill-17" fill="#FFFFFF" mask="url(#mask-2)"></path>
                <path d="M190.074864,24.7840541 C190.074864,28.3078378 190.753125,29.0075676 192.939538,29.0075676 C195.175679,29.0075676 195.85394,28.3078378 195.85394,24.7840541 C195.85394,21.1354054 195.175679,20.5605405 192.939538,20.5605405 C190.753125,20.5605405 190.074864,21.1354054 190.074864,24.7840541 M186.858832,24.7337838 C186.858832,19.5356757 188.893614,18.0608108 192.939538,18.0608108 C197.034375,18.0608108 199.069973,19.5356757 199.069973,24.7337838 C199.069973,29.957027 197.059647,31.5072973 192.939538,31.5072973 C188.869158,31.5072973 186.858832,29.957027 186.858832,24.7337838" id="Fill-19" fill="#FFFFFF" mask="url(#mask-2)"></path>
                <path d="M204.535435,31.1569459 L201.419674,31.1569459 L201.419674,19.161 C202.977554,18.561 205.439511,18.0615405 207.474293,18.0615405 C211.068587,18.0615405 212.676196,19.4861351 212.676196,24.0591081 L212.676196,31.1569459 L209.560435,31.1569459 L209.560435,24.3842432 C209.560435,21.5601892 209.032989,20.8604595 206.82212,20.8604595 C206.0175,20.8604595 205.288696,20.9601892 204.535435,21.1604595 L204.535435,31.1569459 Z" id="Fill-20" fill="#FFFFFF" mask="url(#mask-2)"></path>
                <path d="M223.866603,21.1852703 C222.86144,20.8601351 221.429103,20.5852703 220.147582,20.5852703 C218.614973,20.5852703 217.83644,20.7352703 217.83644,22.0601351 C217.83644,22.935 218.388342,23.2341892 220.474484,23.4344595 C223.564973,23.7595946 224.92231,24.7090541 224.92231,27.2582432 C224.92231,30.5574324 222.710625,31.5068919 219.444049,31.5068919 C218.087527,31.5068919 216.077201,31.2563514 214.871495,30.8314865 L215.524484,28.3828378 C216.453832,28.707973 218.036984,28.9828378 219.318505,28.9828378 C221.027201,28.9828378 221.831005,28.7574324 221.831005,27.4333784 C221.831005,26.5333784 221.328832,26.1085135 219.09269,25.9090541 C216.277745,25.6836486 214.770408,24.9093243 214.770408,22.2847297 C214.770408,18.9863514 217.006549,18.0612162 220.248668,18.0612162 C221.579918,18.0612162 223.263342,18.3360811 224.544864,18.7609459 L223.866603,21.1852703 Z" id="Fill-21" fill="#FFFFFF" mask="url(#mask-2)"></path>
                <path d="M86.8714402,44.9371622 C86.8714402,43.665 86.6187228,43.2036486 85.1708967,43.2036486 C84.7486141,43.2036486 83.7931793,43.3568919 83.315462,43.4971622 C83.4141033,43.8604054 83.4703533,44.3217568 83.4703533,44.8674324 L83.4703533,49.3406757 L82.1203533,49.3406757 L82.1203533,44.9371622 C82.1203533,43.665 81.8676359,43.2036486 80.4198098,43.2036486 C79.9698098,43.2036486 79.1545924,43.3155405 78.7192663,43.455 L78.7192663,49.3406757 L77.3692663,49.3406757 L77.3692663,42.1828378 L78.4241576,42.1828378 L78.5219837,42.4901351 C79.1407337,42.1828378 80.0260598,42.0571622 80.4899185,42.0571622 C81.6426359,42.0571622 82.4016033,42.2387838 82.865462,42.7001351 L83.2730707,42.4901351 C83.8918207,42.1828378 84.7771467,42.0571622 85.2410054,42.0571622 C87.4763315,42.0571622 88.220625,42.6863514 88.220625,44.8674324 L88.220625,49.3406757 L86.8714402,49.3406757 L86.8714402,44.9371622 Z" id="Fill-22" fill="#FFFFFF" mask="url(#mask-2)"></path>
                <path d="M90.0423913,49.3405135 L91.3915761,49.3405135 L91.3915761,42.1826757 L90.0423913,42.1826757 L90.0423913,49.3405135 Z M90.7173913,40.9388919 C90.1972826,40.9388919 89.9298913,40.8124054 89.9298913,40.1556486 L89.9298913,40.0437568 C89.9298913,39.4007838 90.1972826,39.2751081 90.7173913,39.2751081 C91.2375,39.2751081 91.5040761,39.4007838 91.5040761,40.0437568 L91.5040761,40.1556486 C91.5040761,40.8124054 91.2375,40.9388919 90.7173913,40.9388919 L90.7173913,40.9388919 Z" id="Fill-23" fill="#FFFFFF" mask="url(#mask-2)"></path>
                <path d="M97.9888043,44.9371622 C97.9888043,43.665 97.7352717,43.2036486 96.2882609,43.2036486 C95.8382609,43.2036486 95.0230435,43.3155405 94.5869022,43.455 L94.5869022,49.3406757 L93.2377174,49.3406757 L93.2377174,42.1828378 L94.2917935,42.1828378 L94.3904348,42.4901351 C95.0091848,42.1828378 95.8945109,42.0571622 96.3583696,42.0571622 C98.5928804,42.0571622 99.3379891,42.6863514 99.3379891,44.8674324 L99.3379891,49.3406757 L97.9888043,49.3406757 L97.9888043,44.9371622 Z" id="Fill-24" fill="#FFFFFF" mask="url(#mask-2)"></path>
                <path d="M101.128533,49.3405135 L102.477717,49.3405135 L102.477717,42.1826757 L101.128533,42.1826757 L101.128533,49.3405135 Z M101.802717,40.9388919 C101.283424,40.9388919 101.016033,40.8124054 101.016033,40.1556486 L101.016033,40.0437568 C101.016033,39.4007838 101.283424,39.2751081 101.802717,39.2751081 C102.322826,39.2751081 102.590217,39.4007838 102.590217,40.0437568 L102.590217,40.1556486 C102.590217,40.8124054 102.322826,40.9388919 101.802717,40.9388919 L101.802717,40.9388919 Z" id="Fill-25" fill="#FFFFFF" mask="url(#mask-2)"></path>
                <path d="M109.07462,44.9371622 C109.07462,43.665 108.821087,43.2036486 107.374076,43.2036486 C106.924076,43.2036486 106.108859,43.3155405 105.672717,43.455 L105.672717,49.3406757 L104.323533,49.3406757 L104.323533,42.1828378 L105.377609,42.1828378 L105.47625,42.4901351 C106.095,42.1828378 106.980326,42.0571622 107.444185,42.0571622 C109.678696,42.0571622 110.423804,42.6863514 110.423804,44.8674324 L110.423804,49.3406757 L109.07462,49.3406757 L109.07462,44.9371622 Z" id="Fill-26" fill="#FFFFFF" mask="url(#mask-2)"></path>
                <path d="M113.389484,44.9371622 L113.389484,46.5863514 C113.389484,47.9987838 113.923451,48.3198649 115.202527,48.3198649 C115.947636,48.3198649 116.622636,48.2501351 117.030245,48.1244595 L117.030245,43.455 C116.594103,43.3155405 115.652527,43.2036486 115.202527,43.2036486 C113.754701,43.2036486 113.389484,43.665 113.389484,44.9371622 M115.202527,49.4663514 C113.080516,49.4663514 112.040299,48.7674324 112.040299,46.5863514 L112.040299,44.9371622 C112.040299,42.6166216 113.347092,42.0571622 115.244918,42.0571622 C115.51231,42.0571622 116.607962,42.1828378 117.226712,42.4901351 L117.325353,42.1828378 L118.379429,42.1828378 L118.379429,48.6555405 C118.379429,50.067973 118.379429,51.452027 116.157962,52.0114865 C114.879701,52.3041892 113.360951,52.2904054 112.489484,52.2904054 L112.489484,51.1439189 C113.614484,51.1439189 114.823451,51.1301351 115.821277,50.9063514 C116.776712,50.655 116.987853,49.9982432 117.030245,49.2433784 C116.650353,49.3406757 116.116386,49.4663514 115.202527,49.4663514" id="Fill-27" fill="#FFFFFF" mask="url(#mask-2)"></path>
                <path d="M126.813505,43.2173514 C125.717038,43.2173514 124.760788,43.398973 124.760788,44.8535676 L124.760788,46.6705946 C124.803179,48.2224865 125.717038,48.306 126.828179,48.306 C127.573288,48.306 128.388505,48.2087027 128.851549,48.0968108 L128.851549,49.2295135 C128.346114,49.3268108 127.474647,49.4524865 126.589321,49.4524865 C123.467853,49.4524865 123.411603,47.6492432 123.411603,46.6705946 L123.411603,44.8535676 C123.411603,43.8749189 123.467853,42.0708649 126.589321,42.0708649 C127.474647,42.0708649 128.346114,42.1965405 128.851549,42.2946486 L128.851549,43.4273514 C128.416223,43.3292432 127.558614,43.2173514 126.813505,43.2173514" id="Fill-28" fill="#FFFFFF" mask="url(#mask-2)"></path>
                <path d="M135.487174,44.9371622 C135.444783,43.455 134.728207,43.2036486 133.519239,43.2036486 C132.156196,43.2036486 131.551304,43.5806757 131.551304,44.9371622 L131.551304,46.5863514 C131.551304,48.0409459 132.338804,48.3198649 133.519239,48.3198649 C134.868424,48.3198649 135.487174,47.9566216 135.487174,46.5863514 L135.487174,44.9371622 Z M136.836359,46.5863514 C136.836359,47.6217568 136.752391,49.4663514 133.519239,49.4663514 C130.286087,49.4663514 130.20212,47.6217568 130.20212,46.5863514 L130.20212,44.9371622 C130.20212,43.9025676 130.286087,42.0571622 133.519239,42.0571622 C136.752391,42.0571622 136.836359,43.9163514 136.836359,44.9371622 L136.836359,46.5863514 Z" id="Fill-29" fill="#FFFFFF" mask="url(#mask-2)"></path>
                <path d="M143.258804,44.9371622 C143.258804,43.665 143.006087,43.2036486 141.558261,43.2036486 C141.108261,43.2036486 140.293043,43.3155405 139.857717,43.455 L139.857717,49.3406757 L138.508533,49.3406757 L138.508533,42.1828378 L139.562609,42.1828378 L139.660435,42.4901351 C140.279185,42.1828378 141.165326,42.0571622 141.62837,42.0571622 C143.863696,42.0571622 144.607989,42.6863514 144.607989,44.8674324 L144.607989,49.3406757 L143.258804,49.3406757 L143.258804,44.9371622 Z" id="Fill-30" fill="#FFFFFF" mask="url(#mask-2)"></path>
                <path d="M146.128777,47.8870541 C146.859212,48.1943514 147.730679,48.320027 148.363288,48.320027 C149.445082,48.320027 150.02144,48.1521892 150.02144,47.4532703 C150.02144,46.935973 149.586114,46.7267838 149.108397,46.503 L147.744538,45.860027 C146.690462,45.3565135 146.282853,44.9089459 146.282853,43.8743514 C146.282853,42.6581351 147.182853,42.0573243 149.235571,42.0573243 C149.572255,42.0573243 150.429049,42.0986757 151.047799,42.3086757 L151.047799,43.4551622 C150.52769,43.2735405 149.502147,43.2038108 149.235571,43.2038108 C148.124429,43.2038108 147.632853,43.4275946 147.632853,43.9440811 C147.632853,44.420027 147.899429,44.5457027 148.307038,44.7411081 L149.797255,45.440027 C150.766549,45.9013784 151.37144,46.4746216 151.37144,47.4816486 C151.37144,48.9354324 150.30269,49.4665135 148.363288,49.4665135 C147.674429,49.4665135 146.901603,49.3408378 146.128777,49.0886757 L146.128777,47.8870541 Z" id="Fill-31" fill="#FFFFFF" mask="url(#mask-2)"></path>
                <path d="M154.206114,46.5865135 C154.206114,47.8586757 154.459647,48.320027 155.906658,48.320027 C156.356658,48.320027 157.171875,48.2081351 157.608016,48.0686757 L157.608016,42.183 L158.957201,42.183 L158.957201,49.3408378 L157.903125,49.3408378 L157.804484,49.0335405 C157.185734,49.3408378 156.300408,49.4665135 155.836549,49.4665135 C153.602038,49.4665135 152.856929,48.8373243 152.856929,46.6562432 L152.856929,42.183 L154.206114,42.183 L154.206114,46.5865135 Z" id="Fill-32" fill="#FFFFFF" mask="url(#mask-2)"></path>
                <polygon id="Fill-33" fill="#FFFFFF" mask="url(#mask-2)" points="160.826087 49.3405135 162.175272 49.3405135 162.175272 39.4007838 160.826087 39.4007838"></polygon>
                <path d="M168.142826,49.3827568 C167.777609,49.4387027 167.355326,49.4670811 166.990109,49.4670811 C164.909674,49.4670811 164.698533,48.0408649 164.698533,47.3557297 L164.698533,43.2457297 L163.588207,43.2457297 L163.588207,42.1827568 L164.72788,42.1827568 L165.008315,40.2400541 L166.048533,40.2400541 L166.048533,42.1827568 L168.128152,42.1827568 L168.128152,43.2457297 L166.048533,43.2457297 L166.048533,47.3557297 C166.048533,47.8454595 166.202609,48.4041081 167.271359,48.4041081 C167.524076,48.4041081 167.847717,48.3903243 168.142826,48.3619459 L168.142826,49.3827568 Z" id="Fill-34" fill="#FFFFFF" mask="url(#mask-2)"></path>
                <path d="M170.668125,46.5865135 C170.696658,47.8586757 171.033342,48.320027 172.481984,48.320027 C172.931168,48.320027 173.70481,48.2081351 174.140951,48.0686757 L174.140951,43.3294865 C173.662418,43.2451622 172.931168,43.2038108 172.481984,43.2038108 C171.033342,43.2038108 170.668125,43.6643514 170.668125,44.9373243 L170.668125,46.5865135 Z M169.31894,44.9373243 C169.332799,43.8743514 169.389864,42.0573243 172.52356,42.0573243 C173.634701,42.0573243 174.520027,42.1692162 175.490136,42.4343514 L175.490136,49.3408378 L174.435245,49.3408378 L174.337418,49.0335405 C173.718668,49.3408378 172.790951,49.4665135 172.52356,49.4665135 C169.389864,49.4665135 169.31894,47.6494865 169.31894,46.5865135 L169.31894,44.9373243 Z" id="Fill-35" fill="#FFFFFF" mask="url(#mask-2)"></path>
                <path d="M182.081902,44.9371622 C182.081902,43.665 181.829185,43.2036486 180.381359,43.2036486 C179.931359,43.2036486 179.116141,43.3155405 178.680815,43.455 L178.680815,49.3406757 L177.33163,49.3406757 L177.33163,42.1828378 L178.385707,42.1828378 L178.483533,42.4901351 C179.102283,42.1828378 179.988424,42.0571622 180.451467,42.0571622 C182.686793,42.0571622 183.431087,42.6863514 183.431087,44.8674324 L183.431087,49.3406757 L182.081902,49.3406757 L182.081902,44.9371622 Z" id="Fill-36" fill="#FFFFFF" mask="url(#mask-2)"></path>
                <path d="M189.289891,49.3827568 C188.924674,49.4387027 188.502391,49.4670811 188.137174,49.4670811 C186.056739,49.4670811 185.845598,48.0408649 185.845598,47.3557297 L185.845598,43.2457297 L184.735272,43.2457297 L184.735272,42.1827568 L185.874946,42.1827568 L186.15538,40.2400541 L187.195598,40.2400541 L187.195598,42.1827568 L189.275217,42.1827568 L189.275217,43.2457297 L187.195598,43.2457297 L187.195598,47.3557297 C187.195598,47.8454595 187.349674,48.4041081 188.418424,48.4041081 C188.671141,48.4041081 188.994783,48.3903243 189.289891,48.3619459 L189.289891,49.3827568 Z" id="Fill-37" fill="#FFFFFF" mask="url(#mask-2)"></path>
                <path d="M190.516712,47.8870541 C191.247147,48.1943514 192.118614,48.320027 192.751223,48.320027 C193.833016,48.320027 194.409375,48.1521892 194.409375,47.4532703 C194.409375,46.935973 193.974049,46.7267838 193.496332,46.503 L192.132473,45.860027 C191.078397,45.3565135 190.670788,44.9089459 190.670788,43.8743514 C190.670788,42.6581351 191.570788,42.0573243 193.623505,42.0573243 C193.96019,42.0573243 194.816984,42.0986757 195.435734,42.3086757 L195.435734,43.4551622 C194.915625,43.2735405 193.890082,43.2038108 193.623505,43.2038108 C192.512364,43.2038108 192.020788,43.4275946 192.020788,43.9440811 C192.020788,44.420027 192.287364,44.5457027 192.694973,44.7411081 L194.18519,45.440027 C195.154484,45.9013784 195.759375,46.4746216 195.759375,47.4816486 C195.759375,48.9354324 194.690625,49.4665135 192.751223,49.4665135 C192.062364,49.4665135 191.289538,49.3408378 190.516712,49.0886757 L190.516712,47.8870541 Z" id="Fill-38" fill="#FFFFFF" mask="url(#mask-2)"></path>
                <polygon id="Fill-39" fill="#A3DD5F" mask="url(#mask-2)" points="0 60.0002432 60 60.0002432 60 0.000243243243 0 0.000243243243"></polygon>
                <g id="Group" mask="url(#mask-2)">
                    <g transform="translate(0.000000, 10.000000)">
                        <polygon id="Fill-40" fill="#5C9E5C" points="-0.000163043478 18 29.999837 0 29.999837 16 -0.000163043478 34"></polygon>
                        <polygon id="Fill-40-Copy" fill="#3B755C" points="-0.000163043478 34 29.999837 16 29.999837 32 -0.000163043478 50"></polygon>
                        <polygon id="Fill-40-Copy-2" fill="#195359" points="-0.000163043478 50 29.999837 32 29.999837 50"></polygon>
                        <polygon id="Fill-40-Copy-5" fill="#84C95F" transform="translate(44.999837, 17.000000) scale(-1, 1) translate(-44.999837, -17.000000) " points="29.999837 18 59.999837 0 59.999837 16 29.999837 34"></polygon>
                        <polygon id="Fill-40-Copy-4" fill="#5C9E5C" transform="translate(44.999837, 33.000000) scale(-1, 1) translate(-44.999837, -33.000000) " points="29.999837 34 59.999837 16 59.999837 32 29.999837 50"></polygon>
                        <polygon id="Fill-40-Copy-3" fill="#3B755C" transform="translate(44.999837, 41.000000) scale(-1, 1) translate(-44.999837, -41.000000) " points="29.999837 50 59.999837 32 59.999837 50"></polygon>
                    </g>
                </g>
            </g>
        </g>
    </g>
</svg>